<?xml version="1.0" standalone="no"?>
<!DOCTYPE svg PUBLIC "-//W3C//DTD SVG 20010904//EN"
 "http://www.w3.org/TR/2001/REC-SVG-20010904/DTD/svg10.dtd">
<svg version="1.0" xmlns="http://www.w3.org/2000/svg"
 width="125.000000pt" height="125.000000pt" viewBox="0 0 125.000000 125.000000"
 preserveAspectRatio="xMidYMid meet">
<metadata>
Created by potrace 1.14, written by Peter Selinger 2001-2017
</metadata>
<g transform="translate(0.000000,125.000000) scale(0.100000,-0.100000)"
fill="#000000" stroke="none">
<path d="M905 1060 c-3 -5 -4 -14 -1 -19 4 -5 0 -12 -6 -14 -8 -4 -7 -6 3 -6
10 -1 19 9 21 24 5 25 -5 34 -17 15z"/>
<path d="M1074 1062 c-7 -4 -8 -16 -4 -27 7 -19 7 -19 14 3 9 27 5 34 -10 24z"/>
<path d="M1104 1059 c-3 -6 -1 -15 6 -19 10 -6 9 -9 -1 -13 -9 -3 -10 -6 -2
-6 6 -1 15 4 18 9 3 6 14 10 23 10 15 0 15 -2 2 -10 -13 -8 3 -9 53 -1 4 0 7
11 7 24 0 18 -2 19 -10 7 -5 -8 -10 -10 -10 -5 0 6 -9 11 -20 12 -12 1 -18 -3
-14 -9 4 -6 -1 -6 -14 1 -26 14 -29 14 -38 0z m81 -19 c3 -5 1 -10 -4 -10 -6
0 -11 5 -11 10 0 6 2 10 4 10 3 0 8 -4 11 -10z"/>
<path d="M983 1049 c-10 -3 -26 -5 -35 -3 -10 1 -18 -4 -18 -12 0 -8 5 -14 10
-14 6 0 10 5 10 12 0 9 3 9 11 1 9 -9 15 -8 26 3 15 15 38 10 28 -7 -4 -5 -2
-9 3 -9 5 0 12 8 14 18 5 19 -15 24 -49 11z"/>
<path d="M690 989 c0 -5 6 -9 14 -9 31 0 141 -68 195 -120 163 -161 168 -383
11 -541 -57 -58 -160 -115 -225 -126 -65 -11 -35 -22 48 -19 355 15 554 349
368 620 -37 53 -116 119 -176 146 -85 39 -235 70 -235 49z"/>
<path d="M53 725 c-79 -34 -63 -109 34 -157 56 -28 67 -47 46 -78 -16 -23 -45
-24 -111 -4 -18 5 -22 2 -22 -15 0 -23 31 -35 94 -34 53 1 90 31 94 75 3 39
-13 58 -86 98 -50 27 -60 45 -40 73 14 19 49 24 91 12 23 -6 27 -4 27 14 0 12
-6 22 -12 22 -62 7 -87 6 -115 -6z"/>
<path d="M243 732 c-25 -4 -32 -32 -8 -32 12 0 15 -19 15 -115 0 -96 -3 -115
-15 -115 -8 0 -15 -7 -15 -15 0 -11 12 -15 50 -15 36 0 50 4 50 14 0 8 -6 16
-14 19 -10 4 -13 31 -13 115 0 103 2 111 21 116 15 4 18 8 10 16 -13 13 -47
18 -81 12z"/>
<path d="M633 731 c-9 -6 -26 -40 -81 -161 l-25 -55 -50 108 c-47 99 -53 107
-79 107 l-28 0 0 -145 c0 -136 1 -145 19 -145 25 0 28 11 26 105 -1 44 0 84 3
88 3 7 47 -82 83 -171 16 -41 38 -20 82 75 23 50 45 94 47 97 3 3 5 -34 5 -82
-1 -102 1 -112 26 -112 18 0 19 9 19 144 0 132 -1 144 -19 149 -10 2 -23 2
-28 -2z"/>
<path d="M802 728 c-25 -7 -37 -18 -48 -44 -20 -47 -5 -70 69 -112 30 -17 57
-38 60 -46 17 -42 -30 -66 -91 -48 -43 13 -65 1 -42 -23 21 -20 89 -25 130 -8
40 16 50 28 50 63 0 37 -25 67 -80 95 -27 14 -52 34 -55 46 -13 40 34 62 95
45 21 -6 26 -3 27 13 1 12 -4 22 -10 22 -44 5 -77 4 -105 -3z"/>
</g>
</svg>
